<svg width="240" height="240" fill="none" xmlns="http://www.w3.org/2000/svg"><path d="M108.129 28.0539v58.7724l62.84-36.6912c-11.788-6.641-39.015-21.8321-45.324-25.3186-3.985-2.1583-6.226-2.2413-6.973-2.1583h-.083l-10.46 5.3127v.083Zm-73.1332 55.95L85.965 113.224l-.4981-72.7183c-11.6216 6.973-38.3514 22.9113-44.4943 26.7298-3.8185 2.4073-5.0637 4.2336-5.3127 4.8977l-.6641 11.7877v.083Zm108.3302 9.5463L206 130.407c0-13.531 0-44.6599-.083-51.8819 0-4.4827-.996-6.475-1.494-7.056h-.083l-9.713-6.641-51.301 28.7221ZM70.0267 189.761c11.7877 6.641 39.0153 21.832 45.3243 25.318 3.902 2.159 6.226 2.325 6.89 2.159l10.46-5.313v-58.772l-62.8403 36.691.166-.083Zm84.9213-63.089.581 72.718c11.621-6.973 38.351-22.911 44.494-26.73 3.819-2.324 5.064-4.233 5.313-4.897l.664-11.788-50.969-29.22-.083-.083ZM36.49 168.51h.083l9.7124 6.641 51.3012-28.722-62.6738-36.941c0 13.531 0 44.744.083 51.966 0 4.482.9961 6.475 1.4942 7.056Z" fill="#00BEF2"/></svg>